# Alias OBJ Model File
# Exported from SketchUp, (c) 2000-2012 Trimble Navigation Limited
# File units = millimeters

mtllib player.mtl

g Mesh1 Model

usemtl FrontColor
v 20.5781 0 -37.1661
vt -0.810162 1.46323
vn 0 -1 -0
v 20.5781 0 -137.166
vt -0.810162 5.40024
v 120.578 0 -137.166
vt -4.74717 5.40024
v 120.578 0 -37.1661
vt -4.74717 1.46323
f 1/1/1 2/2/1 3/3/1 4/4/1 

vt -5.40024 0
vn -1 0 -0
vt -1.46323 0
v 20.5781 100 -37.1661
vt -1.46323 3.93701
v 20.5781 100 -137.166
vt -5.40024 3.93701
f 2/5/2 1/6/2 5/7/2 6/8/2 

vt 0.810162 0
vn 0 0 1
vt 4.74717 0
v 120.578 100 -37.1661
vt 4.74717 3.93701
vt 0.810162 3.93701
f 1/9/3 4/10/3 7/11/3 5/12/3 

vt 1.46323 0
vn 1 0 -0
vt 5.40024 0
v 120.578 100 -137.166
vt 5.40024 3.93701
vt 1.46323 3.93701
f 4/13/4 3/14/4 8/15/4 7/16/4 

vt -4.74717 0
vn 0 0 -1
vt -0.810162 0
vt -0.810162 3.93701
vt -4.74717 3.93701
f 3/17/5 2/18/5 6/19/5 8/20/5 

vt 0.810162 5.40024
vn 0 1 -0
v 60.5781 100 -97.1661
vt 2.38496 3.82544
vt 4.74717 5.40024
f 6/21/6 9/22/6 8/23/6

v 60.5781 100 -77.1661
vt 2.38496 3.03804
f 9/22/6 6/21/6 10/24/6

vt 0.810162 1.46323
f 5/25/6 10/24/6 6/21/6

vt 4.74717 1.46323
f 10/24/6 5/25/6 7/26/6

v 80.5781 100 -77.1661
vt 3.17237 3.03804
f 10/24/6 7/26/6 11/27/6

v 80.5781 100 -97.1661
vt 3.17237 3.82544
f 11/27/6 7/26/6 12/28/6

f 8/23/6 12/28/6 7/26/6

f 8/23/6 9/22/6 12/28/6

f 9/22/6 10/24/6 11/27/6 12/28/6 

vt -3.03804 3.93701
v 60.5781 125 -77.1661
vt -3.03804 4.92126
v 60.5781 125 -97.1661
vt -3.82544 4.92126
vt -3.82544 3.93701
f 10/29/2 13/30/2 14/31/2 9/32/2 

vt 3.17237 3.93701
v 80.5781 125 -77.1661
vt 3.17237 4.92126
vt 2.38496 4.92126
vt 2.38496 3.93701
f 11/33/3 15/34/3 13/35/3 10/36/3 

vt 3.82544 3.93701
v 80.5781 125 -97.1661
vt 3.82544 4.92126
vt 3.03804 4.92126
vt 3.03804 3.93701
f 12/37/4 16/38/4 15/39/4 11/40/4 

vt -2.38496 3.93701
vt -2.38496 4.92126
vt -3.17237 4.92126
vt -3.17237 3.93701
f 9/41/5 14/42/5 16/43/5 12/44/5 

f 14/22/6 13/24/6 15/27/6 16/28/6 

vt -2.38496 3.82544
vt -2.38496 3.03804
v 60.5781 125 -57.1661
vt -2.38496 2.25063
v 40.5781 125 -57.1661
vt -1.59756 2.25063
v 40.5781 125 -117.166
vt -1.59756 4.61284
v 60.5781 125 -117.166
vt -2.38496 4.61284
f 14/45/1 13/46/1 17/47/1 18/48/1 19/49/1 20/50/1 

vt -3.17237 3.03804
v 100.578 125 -77.1661
vt -3.95977 3.03804
v 100.578 125 -57.1661
vt -3.95977 2.25063
f 13/46/1 15/51/1 21/52/1 22/53/1 17/47/1 

vt -3.17237 3.82544
v 80.5781 125 -117.166
vt -3.17237 4.61284
v 100.578 125 -117.166
vt -3.95977 4.61284
f 15/51/1 16/54/1 23/55/1 24/56/1 21/52/1 

f 16/54/1 14/45/1 20/50/1 23/55/1 

v 40.5781 155 -117.166
vt -1.59756 6.10236
v 100.578 155 -117.166
vt -3.95977 6.10236
vt -3.95977 4.92126
vt -1.59756 4.92126
f 25/57/5 26/58/5 24/59/5 23/43/5 20/42/5 19/60/5 

v 100.578 155 -57.1661
vt 3.95977 2.25063
vt 3.95977 4.61284
vt 1.59756 4.61284
v 40.5781 155 -57.1661
vt 1.59756 2.25063
f 27/61/6 26/62/6 25/63/6 28/64/6 

vt 4.61284 6.10236
vt 2.25063 6.10236
vt 2.25063 4.92126
vt 4.61284 4.92126
f 26/65/4 27/66/4 22/67/4 21/39/4 24/68/4 

v 97.3396 138.188 -57.1661
vt 3.83227 5.44048
vt 3.95977 4.92126
vt 3.95977 6.10236
f 29/69/3 22/70/3 27/71/3

v 96.6403 136.5 -57.1661
vt 3.80474 5.37402
f 30/72/3 22/70/3 29/69/3

v 95.5279 135.05 -57.1661
vt 3.76094 5.31694
f 31/73/3 22/70/3 30/72/3

v 94.0781 133.938 -57.1661
vt 3.70386 5.27314
f 32/74/3 22/70/3 31/73/3

v 92.3898 133.239 -57.1661
vt 3.6374 5.24561
f 33/75/3 22/70/3 32/74/3

f 22/70/3 33/75/3 17/35/3

vt 1.59756 4.92126
f 17/35/3 33/75/3 18/76/3

v 90.5781 133 -57.1661
vt 3.56607 5.23622
f 18/76/3 33/75/3 34/77/3

vt 2.25063 4.21902
vn -4.05929e-16 -1 -0
vt 2.25063 4.29097
vn 0.258819 -0.965926 -0
v 92.3898 133.239 -55.1661
vt 2.17189 4.29097
v 90.5781 133 -55.1661
vt 2.17189 4.21902
f 34/78/7 33/79/8 35/80/8 36/81/7 

vt 2.25063 5.36792
vt 2.25063 5.43987
vn 0.5 -0.866025 -0
v 94.0781 133.938 -55.1661
vt 2.17189 5.43987
vt 2.17189 5.36792
f 33/82/8 32/83/9 37/84/9 35/85/8 

vt 2.25063 6.14856
vt 2.25063 6.2205
vn 0.707107 -0.707107 -0
v 95.5279 135.05 -55.1661
vt 2.17189 6.2205
vt 2.17189 6.14856
f 32/86/9 31/87/10 38/88/10 37/89/9 

vt 2.25063 6.50773
vt 2.25063 6.57967
vn 0.866025 -0.5 -0
v 96.6403 136.5 -55.1661
vt 2.17189 6.57967
vt 2.17189 6.50773
f 31/90/10 30/91/11 39/92/11 38/93/10 

vt 2.25063 6.42095
vt 2.25063 6.4929
vn 0.965926 -0.258819 -0
v 97.3396 138.188 -55.1661
vt 2.17189 6.4929
vt 2.17189 6.42095
f 30/94/11 29/95/12 40/96/12 39/97/11 

vt 2.25063 5.89415
v 97.5781 140 -57.1661
vt 2.25063 5.96609
vn 1 3.06546e-15 -0
v 97.5781 140 -55.1661
vt 2.17189 5.96609
vt 2.17189 5.89415
f 29/98/12 41/99/13 42/100/13 40/101/12 

vt 3.84166 5.51181
f 29/69/3 27/71/3 41/102/3

v 97.3396 141.812 -57.1661
vt 3.83227 5.58314
f 41/102/3 27/71/3 43/103/3

v 96.6403 143.5 -57.1661
vt 3.80474 5.64961
f 43/103/3 27/71/3 44/104/3

v 95.5279 144.95 -57.1661
vt 3.76094 5.70668
f 44/104/3 27/71/3 45/105/3

v 94.4363 145.787 -57.1661
vt 3.71797 5.73966
f 45/105/3 27/71/3 46/106/3

v 94.0781 146.062 -57.1661
vt 3.70386 5.75048
f 46/106/3 27/71/3 47/107/3

v 92.3898 146.761 -57.1661
vt 3.6374 5.77801
f 47/107/3 27/71/3 48/108/3

v 90.5781 147 -57.1661
vt 3.56607 5.7874
f 48/108/3 27/71/3 49/109/3

vt 1.59756 6.10236
f 28/110/3 49/109/3 27/71/3

v 50.5781 147 -57.1661
vt 1.99126 5.7874
f 28/110/3 50/111/3 49/109/3

v 48.7664 146.761 -57.1661
vt 1.91994 5.77801
f 28/110/3 51/112/3 50/111/3

v 47.0781 146.062 -57.1661
vt 1.85347 5.75048
f 28/110/3 52/113/3 51/112/3

v 46.7199 145.787 -57.1661
vt 1.83937 5.73966
f 28/110/3 53/114/3 52/113/3

v 45.6284 144.95 -57.1661
vt 1.79639 5.70668
f 28/110/3 54/115/3 53/114/3

v 44.5159 143.5 -57.1661
vt 1.7526 5.64961
f 28/110/3 55/116/3 54/115/3

v 43.8166 141.812 -57.1661
vt 1.72506 5.58314
f 28/110/3 56/117/3 55/116/3

v 43.5781 140 -57.1661
vt 1.71567 5.51181
f 28/110/3 57/118/3 56/117/3

v 43.8166 138.188 -57.1661
vt 1.72506 5.44048
f 28/110/3 58/119/3 57/118/3

f 18/76/3 58/119/3 28/110/3

v 44.5159 136.5 -57.1661
vt 1.7526 5.37402
f 58/119/3 18/76/3 59/120/3

v 45.6284 135.05 -57.1661
vt 1.79639 5.31694
f 59/120/3 18/76/3 60/121/3

v 47.0781 133.938 -57.1661
vt 1.85347 5.27314
f 60/121/3 18/76/3 61/122/3

v 48.7664 133.239 -57.1661
vt 1.91994 5.24561
f 61/122/3 18/76/3 62/123/3

v 50.5781 133 -57.1661
vt 1.99126 5.23622
f 62/123/3 18/76/3 63/124/3

f 63/124/3 18/76/3 34/77/3

v 88.7664 133.239 -57.1661
vt 3.49474 5.24561
f 64/125/3 63/124/3 34/77/3

v 52.3898 133.239 -57.1661
vt 2.06259 5.24561
f 63/124/3 64/125/3 65/126/3

v 87.0781 133.938 -57.1661
vt 3.42827 5.27314
f 65/126/3 64/125/3 66/127/3

vt -2.25063 -1.14937
vn -0.5 -0.866025 -0
vt -2.25063 -1.22131
vn -0.258819 -0.965926 -0
v 88.7664 133.239 -55.1661
vt -2.17189 -1.22131
v 87.0781 133.938 -55.1661
vt -2.17189 -1.14937
f 66/128/14 64/129/15 67/130/15 68/131/14 

vt -2.25063 -2.78015
vt -2.25063 -2.8521
vt -2.17189 -2.8521
vt -2.17189 -2.78015
f 64/132/15 34/133/7 36/134/7 67/135/15 

v 85.6284 135.05 -55.1661
vt 3.3712 5.31694
v 86.7199 134.213 -55.1661
vt 3.41417 5.28396
v 97.3396 141.812 -55.1661
v 96.6403 143.5 -55.1661
v 95.5279 144.95 -55.1661
v 94.4363 145.787 -55.1661
v 94.0781 146.062 -55.1661
v 92.3898 146.761 -55.1661
v 90.5781 147 -55.1661
v 88.7664 146.761 -55.1661
vt 3.49474 5.77801
v 87.0781 146.062 -55.1661
vt 3.42827 5.75048
v 85.6284 144.95 -55.1661
vt 3.3712 5.70668
v 84.5159 143.5 -55.1661
vt 3.3274 5.64961
v 83.8166 141.812 -55.1661
vt 3.29987 5.58314
v 83.5781 140 -55.1661
vt 3.29048 5.51181
v 83.8166 138.188 -55.1661
vt 3.29987 5.44048
v 84.5159 136.5 -55.1661
vt 3.3274 5.37402
f 69/136/3 70/137/3 68/127/3 67/125/3 36/77/3 35/75/3 37/74/3 38/73/3 39/72/3 40/69/3 42/102/3 71/103/3 72/104/3 73/105/3 74/106/3 75/107/3 76/108/3 77/109/3 78/138/3 79/139/3 80/140/3 81/141/3 82/142/3 83/143/3 84/144/3 85/145/3 

v 85.6284 135.05 -57.1661
vt -2.25063 0.562198
vn -0.707107 -0.707107 -0
v 86.7199 134.213 -57.1661
vt -2.25063 0.508031
vn -0.608761 -0.793353 -0
vt -2.17189 0.508031
vt -2.17189 0.562198
f 86/146/16 87/147/17 70/148/17 69/149/16 

v 54.4363 134.213 -57.1661
vt 2.14316 5.28396
f 88/150/3 87/137/3 86/136/3

v 54.0781 133.938 -57.1661
vt 2.12906 5.27314
f 89/151/3 87/137/3 88/150/3

f 89/151/3 66/127/3 87/137/3

f 65/126/3 66/127/3 89/151/3

vt 2.25063 3.913
vt 2.25063 3.98494
v 54.0781 133.938 -55.1661
vt 2.17189 3.98494
v 52.3898 133.239 -55.1661
vt 2.17189 3.913
f 65/152/8 89/153/9 90/154/9 91/155/8 

vt 2.25063 4.89918
vt 2.25063 4.91696
vn 0.608761 -0.793353 -0
v 54.4363 134.213 -55.1661
vt 2.17189 4.91696
vt 2.17189 4.89918
f 89/156/9 88/157/18 92/158/18 90/159/9 

v 55.5279 135.05 -57.1661
vt 2.25063 4.97113
v 55.5279 135.05 -55.1661
vt 2.17189 4.97113
f 88/157/18 93/160/10 94/161/10 92/158/18 

vt 2.18614 5.31694
f 88/150/3 86/136/3 93/162/3

v 84.5159 136.5 -57.1661
f 93/162/3 86/136/3 95/145/3

vt -2.25063 2.2379
vn -0.866025 -0.5 -0
vt -2.25063 2.16596
vt -2.17189 2.16596
vt -2.17189 2.2379
f 95/163/19 86/164/16 69/165/16 85/166/19 

v 83.8166 138.188 -57.1661
vt -2.25063 3.76355
vn -0.965926 -0.258819 -0
vt -2.25063 3.6916
vt -2.17189 3.6916
vt -2.17189 3.76355
f 96/167/20 95/168/19 85/169/19 84/170/20 

v 56.6403 136.5 -57.1661
vt 2.22993 5.37402
f 97/171/3 95/145/3 96/144/3

f 93/162/3 95/145/3 97/171/3

vt 2.25063 5.54905
vt 2.25063 5.62099
v 56.6403 136.5 -55.1661
vt 2.17189 5.62099
vt 2.17189 5.54905
f 93/172/10 97/173/11 98/174/11 94/175/10 

vt 2.25063 5.8183
v 57.3396 138.188 -57.1661
vt 2.25063 5.89024
v 57.3396 138.188 -55.1661
vt 2.17189 5.89024
vt 2.17189 5.8183
f 97/176/11 99/177/12 100/178/12 98/179/11 

vt 2.25746 5.44048
f 97/171/3 96/144/3 99/180/3

v 83.5781 140 -57.1661
f 99/180/3 96/144/3 101/143/3

vt -2.25063 5.03516
vt -2.25063 4.96322
vt -2.17189 4.96322
vt -2.17189 5.03516
f 101/181/2 96/182/20 84/183/20 83/184/2 

v 83.8166 141.812 -57.1661
vt -2.25063 5.96609
vn -0.965926 0.258819 -0
vt -2.25063 5.89415
vt -2.17189 5.89415
vt -2.17189 5.96609
f 102/185/21 101/186/2 83/187/2 82/188/21 

v 57.5781 140 -57.1661
vt 2.26685 5.51181
f 103/189/3 101/143/3 102/142/3

f 99/180/3 101/143/3 103/189/3

vt 2.25063 5.6886
vt 2.25063 5.76054
v 57.5781 140 -55.1661
vt 2.17189 5.76054
vt 2.17189 5.6886
f 99/190/12 103/191/13 104/192/13 100/193/12 

vt 2.25063 5.16877
v 57.3396 141.812 -57.1661
vt 2.25063 5.24072
vn 0.965926 0.258819 -0
v 57.3396 141.812 -55.1661
vt 2.17189 5.24072
vt 2.17189 5.16877
f 103/194/13 105/195/22 106/196/22 104/197/13 

vt 2.25746 5.58314
f 103/189/3 102/142/3 105/198/3

v 84.5159 143.5 -57.1661
f 105/198/3 102/142/3 107/141/3

vt -2.25063 6.4929
vn -0.866025 0.5 -0
vt -2.25063 6.42095
vt -2.17189 6.42095
vt -2.17189 6.4929
f 107/199/23 102/200/21 82/201/21 81/202/23 

v 85.6284 144.95 -57.1661
vt -2.25063 6.57967
vn -0.707107 0.707107 -0
vt -2.25063 6.50773
vt -2.17189 6.50773
vt -2.17189 6.57967
f 108/203/24 107/204/23 81/205/23 80/206/24 

v 56.6403 143.5 -57.1661
vt 2.22993 5.64961
f 109/207/3 107/141/3 108/140/3

f 105/198/3 107/141/3 109/207/3

vt 2.25063 4.29425
vt 2.25063 4.3662
vn 0.866025 0.5 -0
v 56.6403 143.5 -55.1661
vt 2.17189 4.3662
vt 2.17189 4.29425
f 105/208/22 109/209/25 110/210/25 106/211/22 

vt 2.25063 3.12464
v 55.5279 144.95 -57.1661
vt 2.25063 3.19658
vn 0.707107 0.707107 -0
v 55.5279 144.95 -55.1661
vt 2.17189 3.19658
vt 2.17189 3.12464
f 109/212/25 111/213/26 112/214/26 110/215/25 

vt 2.18614 5.70668
f 109/207/3 108/140/3 111/216/3

v 87.0781 146.062 -57.1661
f 111/216/3 108/140/3 113/139/3

vt -2.25063 6.2205
vn -0.5 0.866025 -0
vt -2.25063 6.14856
vt -2.17189 6.14856
vt -2.17189 6.2205
f 113/217/27 108/218/24 80/219/24 79/220/27 

v 88.7664 146.761 -57.1661
vt -2.25063 5.43987
vn -0.258819 0.965926 -0
vt -2.25063 5.36792
vt -2.17189 5.36792
vt -2.17189 5.43987
f 114/221/28 113/222/27 79/223/27 78/224/28 

v 54.0781 146.062 -57.1661
vt 2.12906 5.75048
f 115/225/3 113/139/3 114/138/3

f 111/216/3 113/139/3 115/225/3

vt 2.25063 1.73963
vt 2.25063 1.81157
vn 0.5 0.866025 -0
v 54.0781 146.062 -55.1661
vt 2.17189 1.81157
vt 2.17189 1.73963
f 111/226/26 115/227/29 116/228/29 112/229/26 

vt 2.25063 0.233619
v 52.3898 146.761 -57.1661
vt 2.25063 0.305562
vn 0.258819 0.965926 -0
v 52.3898 146.761 -55.1661
vt 2.17189 0.305562
vt 2.17189 0.233619
f 115/230/29 117/231/30 118/232/30 116/233/29 

vt 2.06259 5.77801
f 115/225/3 114/138/3 117/234/3

f 117/234/3 114/138/3 49/109/3

vt -2.25063 4.29097
vt -2.25063 4.21902
vt -2.17189 4.21902
vt -2.17189 4.29097
f 49/235/6 114/236/28 78/237/28 77/238/6 

vt 2.25063 -2.8521
vt 2.25063 -2.78015
vt 2.17189 -2.78015
vt 2.17189 -2.8521
f 48/239/30 49/240/6 77/241/6 76/242/30 

vt 2.25063 -1.22131
vt 2.25063 -1.14937
vt 2.17189 -1.14937
vt 2.17189 -1.22131
f 47/243/29 48/244/30 76/245/30 75/246/29 

vt 2.25063 0.544422
vn 0.608761 0.793353 -0
vt 2.25063 0.562198
vt 2.17189 0.562198
vt 2.17189 0.544422
f 46/247/31 47/248/29 75/249/29 74/250/31 

vt 2.25063 0.490255
vt 2.17189 0.490255
f 45/251/26 46/247/31 74/250/31 73/252/26 

vt 2.25063 2.16596
vt 2.25063 2.2379
vt 2.17189 2.2379
vt 2.17189 2.16596
f 44/253/25 45/254/26 73/255/26 72/256/25 

vt 2.25063 3.6916
vt 2.25063 3.76355
vt 2.17189 3.76355
vt 2.17189 3.6916
f 43/257/22 44/258/25 72/259/25 71/260/22 

vt 2.25063 4.96322
vt 2.25063 5.03516
vt 2.17189 5.03516
vt 2.17189 4.96322
f 41/261/13 43/262/22 71/263/22 42/264/13 

f 117/234/3 49/109/3 50/111/3

vt 2.25063 -1.29076
vt 2.25063 -1.21882
vn 1.95966e-16 1 -0
v 50.5781 147 -55.1661
vt 2.17189 -1.21882
vt 2.17189 -1.29076
f 117/265/30 50/266/32 119/267/32 118/268/30 

vt -2.25063 2.72964
vt -2.25063 2.65769
v 48.7664 146.761 -55.1661
vt -2.17189 2.65769
vt -2.17189 2.72964
f 50/269/32 51/270/28 120/271/28 119/272/32 

vt -2.25063 3.98494
vt -2.25063 3.913
v 47.0781 146.062 -55.1661
vt -2.17189 3.913
vt -2.17189 3.98494
f 51/273/28 52/274/27 121/275/27 120/276/28 

vt -2.25063 4.97113
vt -2.25063 4.95335
vn -0.608761 0.793353 -0
v 46.7199 145.787 -55.1661
vt -2.17189 4.95335
vt -2.17189 4.97113
f 52/277/27 53/278/33 122/279/33 121/280/27 

vt -2.25063 4.89918
v 45.6284 144.95 -55.1661
vt -2.17189 4.89918
f 53/278/33 54/281/24 123/282/24 122/279/33 

vt -2.25063 5.62099
vt -2.25063 5.54905
v 44.5159 143.5 -55.1661
vt -2.17189 5.54905
vt -2.17189 5.62099
f 54/283/24 55/284/23 124/285/23 123/286/24 

vt -2.25063 5.89024
vt -2.25063 5.8183
v 43.8166 141.812 -55.1661
vt -2.17189 5.8183
vt -2.17189 5.89024
f 55/287/23 56/288/21 125/289/21 124/290/23 

vt -2.25063 5.76054
vt -2.25063 5.6886
v 43.5781 140 -55.1661
vt -2.17189 5.6886
vt -2.17189 5.76054
f 56/291/21 57/292/2 126/293/2 125/294/21 

vt -2.25063 5.24072
vt -2.25063 5.16877
v 43.8166 138.188 -55.1661
vt -2.17189 5.16877
vt -2.17189 5.24072
f 57/295/2 58/296/20 127/297/20 126/298/2 

vt -2.25063 4.3662
vt -2.25063 4.29425
v 44.5159 136.5 -55.1661
vt -2.17189 4.29425
vt -2.17189 4.3662
f 58/299/20 59/300/19 128/301/19 127/302/20 

vt -2.25063 3.19658
vt -2.25063 3.12464
v 45.6284 135.05 -55.1661
vt -2.17189 3.12464
vt -2.17189 3.19658
f 59/303/19 60/304/16 129/305/16 128/306/19 

vt -2.25063 1.81157
vt -2.25063 1.73963
v 47.0781 133.938 -55.1661
vt -2.17189 1.73963
vt -2.17189 1.81157
f 60/307/16 61/308/14 130/309/14 129/310/16 

vt -2.25063 0.305562
vt -2.25063 0.233619
v 48.7664 133.239 -55.1661
vt -2.17189 0.233619
vt -2.17189 0.305562
f 61/311/14 62/312/15 131/313/15 130/314/14 

vt -2.25063 -1.21882
vt -2.25063 -1.29076
v 50.5781 133 -55.1661
vt -2.17189 -1.29076
vt -2.17189 -1.21882
f 62/315/15 63/316/1 132/317/1 131/318/15 

vt 2.25063 2.65769
vt 2.25063 2.72964
vt 2.17189 2.72964
vt 2.17189 2.65769
f 63/319/1 65/320/8 91/321/8 132/322/1 

f 121/113/3 122/114/3 123/115/3 124/116/3 125/117/3 126/118/3 127/119/3 128/120/3 129/121/3 130/122/3 131/123/3 132/124/3 91/126/3 90/151/3 92/150/3 94/162/3 98/171/3 100/180/3 104/189/3 106/198/3 110/207/3 112/216/3 116/225/3 118/234/3 119/111/3 120/112/3 

vt -2.25063 0.490255
vt -2.17189 0.490255
f 87/147/17 66/323/14 68/324/14 70/148/17 

vt -2.25063 6.10236
vt -4.61284 6.10236
vt -4.61284 4.92126
vt -2.25063 4.92126
f 28/325/2 25/326/2 19/327/2 18/328/2 

